<mxfile host="app.diagrams.net" agent="Mozilla/5.0 (Windows NT 10.0; Win64; x64) AppleWebKit/537.36 (KHTML, like Gecko) Chrome/130.0.0.0 Safari/537.36 Edg/130.0.0.0" version="24.8.4">
  <diagram name="第 1 页" id="CRSTBRzYp5SdFTeYnozJ">
    <mxGraphModel dx="1259" dy="793" grid="1" gridSize="10" guides="1" tooltips="1" connect="1" arrows="1" fold="1" page="1" pageScale="1" pageWidth="827" pageHeight="1169" math="0" shadow="0">
      <root>
        <mxCell id="0" />
        <mxCell id="1" parent="0" />
        <mxCell id="V8Ts5n2w4OnkdCEIrP5f-3" value="excel" style="whiteSpace=wrap;html=1;shape=mxgraph.basic.document;fillColor=#d5e8d4;strokeColor=#82b366;" vertex="1" parent="1">
          <mxGeometry x="314" y="60" width="100" height="100" as="geometry" />
        </mxCell>
        <mxCell id="V8Ts5n2w4OnkdCEIrP5f-1" value="docx" style="whiteSpace=wrap;html=1;shape=mxgraph.basic.document;fillColor=#dae8fc;strokeColor=#6c8ebf;" vertex="1" parent="1">
          <mxGeometry x="214" y="60" width="100" height="100" as="geometry" />
        </mxCell>
        <mxCell id="V8Ts5n2w4OnkdCEIrP5f-2" value="pdf" style="whiteSpace=wrap;html=1;shape=mxgraph.basic.document;fillColor=#f8cecc;strokeColor=#b85450;" vertex="1" parent="1">
          <mxGeometry x="260" y="130" width="100" height="100" as="geometry" />
        </mxCell>
        <mxCell id="V8Ts5n2w4OnkdCEIrP5f-4" value="" style="endArrow=classic;html=1;rounded=0;" edge="1" parent="1">
          <mxGeometry width="50" height="50" relative="1" as="geometry">
            <mxPoint x="310" y="240" as="sourcePoint" />
            <mxPoint x="310" y="320" as="targetPoint" />
          </mxGeometry>
        </mxCell>
        <mxCell id="V8Ts5n2w4OnkdCEIrP5f-5" value="" style="rounded=1;whiteSpace=wrap;html=1;fillColor=#f5f5f5;fontColor=#333333;strokeColor=#666666;" vertex="1" parent="1">
          <mxGeometry x="150" y="330" width="350" height="360" as="geometry" />
        </mxCell>
        <mxCell id="V8Ts5n2w4OnkdCEIrP5f-6" value="jar程序" style="text;html=1;align=center;verticalAlign=middle;whiteSpace=wrap;rounded=0;" vertex="1" parent="1">
          <mxGeometry x="160" y="350" width="60" height="30" as="geometry" />
        </mxCell>
        <mxCell id="V8Ts5n2w4OnkdCEIrP5f-7" value="&lt;div&gt;使用相关解析框架&lt;/div&gt;按页为维度分片解析文档" style="rounded=1;whiteSpace=wrap;html=1;fillColor=#fff2cc;strokeColor=#d6b656;" vertex="1" parent="1">
          <mxGeometry x="240" y="340" width="140" height="60" as="geometry" />
        </mxCell>
        <mxCell id="V8Ts5n2w4OnkdCEIrP5f-10" style="edgeStyle=orthogonalEdgeStyle;rounded=0;orthogonalLoop=1;jettySize=auto;html=1;" edge="1" parent="1" source="V8Ts5n2w4OnkdCEIrP5f-8">
          <mxGeometry relative="1" as="geometry">
            <mxPoint x="630" y="520" as="targetPoint" />
          </mxGeometry>
        </mxCell>
        <mxCell id="V8Ts5n2w4OnkdCEIrP5f-15" value="将文档内数据向量化" style="edgeLabel;html=1;align=center;verticalAlign=middle;resizable=0;points=[];" vertex="1" connectable="0" parent="V8Ts5n2w4OnkdCEIrP5f-10">
          <mxGeometry x="0.0326" y="-2" relative="1" as="geometry">
            <mxPoint as="offset" />
          </mxGeometry>
        </mxCell>
        <mxCell id="V8Ts5n2w4OnkdCEIrP5f-8" value="读取到文档内文本内容" style="rounded=1;whiteSpace=wrap;html=1;fillColor=#fff2cc;strokeColor=#d6b656;" vertex="1" parent="1">
          <mxGeometry x="250" y="490" width="120" height="60" as="geometry" />
        </mxCell>
        <mxCell id="V8Ts5n2w4OnkdCEIrP5f-9" value="" style="endArrow=classic;html=1;rounded=0;" edge="1" parent="1">
          <mxGeometry width="50" height="50" relative="1" as="geometry">
            <mxPoint x="309.5" y="410" as="sourcePoint" />
            <mxPoint x="309.5" y="480" as="targetPoint" />
          </mxGeometry>
        </mxCell>
        <mxCell id="V8Ts5n2w4OnkdCEIrP5f-11" value="向量数据库" style="shape=cylinder3;whiteSpace=wrap;html=1;boundedLbl=1;backgroundOutline=1;size=15;fillColor=#fff2cc;strokeColor=#d6b656;" vertex="1" parent="1">
          <mxGeometry x="275" y="750" width="70" height="100" as="geometry" />
        </mxCell>
        <mxCell id="V8Ts5n2w4OnkdCEIrP5f-13" style="edgeStyle=orthogonalEdgeStyle;rounded=0;orthogonalLoop=1;jettySize=auto;html=1;" edge="1" parent="1" source="V8Ts5n2w4OnkdCEIrP5f-12" target="V8Ts5n2w4OnkdCEIrP5f-14">
          <mxGeometry relative="1" as="geometry">
            <mxPoint x="704" y="640" as="targetPoint" />
            <Array as="points">
              <mxPoint x="705" y="590" />
              <mxPoint x="310" y="590" />
            </Array>
          </mxGeometry>
        </mxCell>
        <mxCell id="V8Ts5n2w4OnkdCEIrP5f-16" value="返回向量化数组" style="edgeLabel;html=1;align=center;verticalAlign=middle;resizable=0;points=[];" vertex="1" connectable="0" parent="V8Ts5n2w4OnkdCEIrP5f-13">
          <mxGeometry x="0.0539" y="3" relative="1" as="geometry">
            <mxPoint as="offset" />
          </mxGeometry>
        </mxCell>
        <mxCell id="V8Ts5n2w4OnkdCEIrP5f-12" value="文本向量化大模型" style="rounded=1;whiteSpace=wrap;html=1;fillColor=#f5f5f5;strokeColor=#666666;fontColor=#333333;" vertex="1" parent="1">
          <mxGeometry x="648.75" y="490" width="111.25" height="50" as="geometry" />
        </mxCell>
        <mxCell id="V8Ts5n2w4OnkdCEIrP5f-17" style="edgeStyle=orthogonalEdgeStyle;rounded=0;orthogonalLoop=1;jettySize=auto;html=1;" edge="1" parent="1" source="V8Ts5n2w4OnkdCEIrP5f-14">
          <mxGeometry relative="1" as="geometry">
            <mxPoint x="310" y="740" as="targetPoint" />
          </mxGeometry>
        </mxCell>
        <mxCell id="V8Ts5n2w4OnkdCEIrP5f-18" value="插入向量数据库" style="edgeLabel;html=1;align=center;verticalAlign=middle;resizable=0;points=[];" vertex="1" connectable="0" parent="V8Ts5n2w4OnkdCEIrP5f-17">
          <mxGeometry x="-0.1305" relative="1" as="geometry">
            <mxPoint as="offset" />
          </mxGeometry>
        </mxCell>
        <mxCell id="V8Ts5n2w4OnkdCEIrP5f-14" value="拼装数据payload" style="rounded=1;whiteSpace=wrap;html=1;fillColor=#fff2cc;strokeColor=#d6b656;" vertex="1" parent="1">
          <mxGeometry x="250" y="600" width="120" height="60" as="geometry" />
        </mxCell>
      </root>
    </mxGraphModel>
  </diagram>
</mxfile>
